# xmcd
#
# Track frame offsets: 
#        150
#        14812
#        30237
#        43395
#        56187
#        68707
#        83275
#        98875
#        114650
#        131100
#        146850
#        159987
#        177362
#        190637
#        205520
#        219182
#        231062
#        247500
#        261387
#        277325
#
# Disc length: 3902 seconds
#
# Revision: 1
# Processed by: cddbd v1.5.2PL0 Copyright (c) Steve Scherf et al.
# Submitted via: ExactAudioCopyFreeDBPlugin 1.0
#
DISCID=1c0f3c14
DTITLE=Various Artist - 青春歌年鑑　戦前編 2 昭和9-12年 2
DYEAR=2008
DGENRE=Vocal
TTITLE0=東京ラプソディ
TTITLE1=女の階級
TTITLE2=あゝそれなのに
TTITLE3=うちの女房にゃ髭がある
TTITLE4=若しも月給が上がったら
TTITLE5=山寺の和尚さん
TTITLE6=タバコやの娘
TTITLE7=流転
TTITLE8=すみだ川
TTITLE9=妻恋道中
TTITLE10=男なら
TTITLE11=人生の並木路
TTITLE12=青い背広で
TTITLE13=マロニエの木蔭
TTITLE14=アイルランドの娘
TTITLE15=春の唄
TTITLE16=青春日記
TTITLE17=林檎の樹の下で
TTITLE18=裏町人生
TTITLE19=別れのブルース
EXTD=YEAR: 2008
EXTT0=
EXTT1=
EXTT2=
EXTT3=
EXTT4=
EXTT5=
EXTT6=
EXTT7=
EXTT8=
EXTT9=
EXTT10=
EXTT11=
EXTT12=
EXTT13=
EXTT14=
EXTT15=
EXTT16=
EXTT17=
EXTT18=
EXTT19=
PLAYORDER=
